<?xml version="1.0" encoding="utf-8"?>
<!-- Generator: Adobe Illustrator 19.0.0, SVG Export Plug-In . SVG Version: 6.00 Build 0)  -->
<svg version="1.1" id="Layer_1" xmlns="http://www.w3.org/2000/svg" xmlns:xlink="http://www.w3.org/1999/xlink" x="0px" y="0px"
	 viewBox="-293 298.2 111.2 105.8" style="enable-background:new -293 298.2 111.2 105.8;" xml:space="preserve">
<style type="text/css">
	.st0{fill:#FFFFFF;stroke:#198A55;stroke-miterlimit:10;}
	.st1{fill:#1C8954;}
</style>
<ellipse class="st0" cx="-237.1" cy="349" rx="47.4" ry="45.2"/>
<g>
	<g>
		<path class="st1" d="M-236.6,346.5c3.8,0,6.8-2.9,6.8-6.6c0-3.7-3.1-6.6-6.8-6.6c-3.8,0-6.8,2.9-6.8,6.6
			C-243.5,343.6-240.4,346.5-236.6,346.5z"/>
		<path class="st1" d="M-231.2,347.5h-11c-1.9,0-3.6,1.7-3.6,3.9v10.5c0,0.1,0.1,0.2,0.1,0.4h17.9c0-0.1,0.1-0.2,0.1-0.4v-10.5
			C-227.6,349.3-229.1,347.5-231.2,347.5z"/>
		<path class="st1" d="M-218.2,349.6c3.1,0,5.5-2.4,5.5-5.3s-2.4-5.3-5.5-5.3c-3.1,0-5.5,2.4-5.5,5.3
			C-223.7,347.2-221.3,349.6-218.2,349.6z"/>
		<path class="st1" d="M-213.8,350.5h-8.8c-1.6,0-2.9,1.4-2.9,3.1v8.5c0,0.1,0.1,0.2,0.1,0.3h14.4c0-0.1,0.1-0.2,0.1-0.3v-8.5
			C-210.9,351.8-212.2,350.5-213.8,350.5z"/>
		<path class="st1" d="M-255,349.6c3.1,0,5.5-2.4,5.5-5.3s-2.4-5.3-5.5-5.3s-5.5,2.4-5.5,5.3S-258.1,349.6-255,349.6L-255,349.6z"/>
		<path class="st1" d="M-250.7,350.5h-8.8c-1.6,0-2.9,1.4-2.9,3.1v8.5c0,0.1,0.1,0.2,0.1,0.3h14.4c0-0.1,0.1-0.2,0.1-0.3v-8.5
			C-247.8,351.8-249.1,350.5-250.7,350.5z"/>
	</g>
</g>
</svg>
