<?xml version="1.0" encoding="utf-8"?>
<!-- Generator: Adobe Illustrator 19.0.0, SVG Export Plug-In . SVG Version: 6.00 Build 0)  -->
<svg version="1.1" id="Layer_1" xmlns="http://www.w3.org/2000/svg" xmlns:xlink="http://www.w3.org/1999/xlink" x="0px" y="0px"
	 viewBox="-293 298.2 111.2 105.8" style="enable-background:new -293 298.2 111.2 105.8;" xml:space="preserve">
<style type="text/css">
	.st0{fill:#FFFFFF;stroke:#198A55;stroke-miterlimit:10;}
	.st1{fill:#1C8954;}
</style>
<ellipse class="st0" cx="-237.1" cy="349" rx="47.4" ry="45.2"/>
<g>
	<path class="st1" d="M-220.8,335.4h-32.1c-1.5,0-2.6,1.3-2.6,2.8v23.4c0,1.5,1.2,2.8,2.6,2.8h32.1c1.5,0,2.6-1.3,2.6-2.8v-23.4
		C-218.2,336.6-219.4,335.4-220.8,335.4z M-219.5,361.6c0,0.8-0.6,1.5-1.4,1.5h-32.1c-0.8,0-1.4-0.7-1.4-1.5v-23.4
		c0-0.8,0.6-1.5,1.4-1.5h32.1c0.8,0,1.4,0.7,1.4,1.5V361.6z"/>
	<path class="st1" d="M-241.4,354l-2.3-1.3v-0.2c1-0.6,1.7-1.5,2.2-2.9c0.6-0.4,1-1,1-1.8v-0.7c0-0.6-0.3-1.2-0.7-1.5
		c-0.4-2.5-2-3.8-4.9-3.8c-0.1,0-0.3,0-0.4,0c-0.6,0.1-1.3,0-2-0.5c-0.3-0.1-0.4-0.4-0.6-0.5c-0.2-0.3-0.6-0.4-0.9-0.2
		c-0.3,0.1-0.5,0.4-0.5,0.8c0,0.2,0.1,0.5,0.1,0.9c0.1,0.7,0.1,0.7-0.1,1c-0.1,0.1-0.1,0.3-0.2,0.6c-0.2,0.5-0.3,1.1-0.4,1.8
		c-0.4,0.4-0.7,1-0.7,1.5v0.7c0,0.7,0.4,1.4,1,1.8c0.4,1.3,1.1,2.3,2.2,2.9v0.2l-2.4,1.3c-0.8,0.5-1.4,1.5-1.4,2.5v0.9
		c0,0.5,0,1.8,6.2,1.8s6.2-1.3,6.2-1.8v-0.8C-240,355.5-240.5,354.5-241.4,354z M-241.2,357.2c-0.4,0.2-1.9,0.6-5,0.6
		s-4.6-0.4-5-0.6v-0.7c0-0.5,0.3-1,0.7-1.3l2.4-1.3c0.3-0.2,0.6-0.6,0.6-1v-1.2l-0.3-0.1c-1-0.4-1.5-1.3-1.9-2.5l-0.1-0.4l-0.3-0.1
		c-0.3-0.1-0.4-0.4-0.4-0.6v-0.7c0-0.2,0.1-0.4,0.3-0.6l0.3-0.1v-0.4c0.1-0.6,0.2-1.2,0.4-1.7c0.1-0.2,0.1-0.4,0.2-0.5
		c0.2-0.5,0.3-0.7,0.2-1.3c0.8,0.4,1.6,0.7,2.6,0.6c0.1,0,0.2,0,0.3,0c2.3,0,3.5,0.9,3.7,2.9l0.1,0.4l0.3,0.1
		c0.2,0.1,0.3,0.4,0.3,0.6v0.7c0,0.3-0.2,0.5-0.4,0.6l-0.3,0.1l-0.1,0.4c-0.3,1.3-0.9,2.1-1.9,2.5l-0.3,0.1v1.2c0,0.4,0.2,0.8,0.6,1
		l2.4,1.3c0.5,0.2,0.8,0.7,0.8,1.3L-241.2,357.2L-241.2,357.2z"/>
	<path class="st1" d="M-236.9,345.3h6.2c0.3,0,0.6-0.3,0.6-0.7s-0.3-0.7-0.6-0.7h-6.2c-0.3,0-0.6,0.3-0.6,0.7
		S-237.2,345.3-236.9,345.3z"/>
	<path class="st1" d="M-228.2,345.3h0.6c0.3,0,0.6-0.3,0.6-0.7s-0.3-0.7-0.6-0.7h-0.6c-0.3,0-0.6,0.3-0.6,0.7
		S-228.5,345.3-228.2,345.3z"/>
	<path class="st1" d="M-236.2,355.2h-0.6c-0.3,0-0.6,0.3-0.6,0.7s0.3,0.7,0.6,0.7h0.6c0.3,0,0.6-0.3,0.6-0.7
		S-235.9,355.2-236.2,355.2z"/>
	<path class="st1" d="M-232.5,355.2h-1.3c-0.3,0-0.6,0.3-0.6,0.7s0.3,0.7,0.6,0.7h1.3c0.3,0,0.6-0.3,0.6-0.7
		S-232.2,355.2-232.5,355.2z"/>
	<path class="st1" d="M-229.4,355.2h-0.6c-0.3,0-0.6,0.3-0.6,0.7s0.3,0.7,0.6,0.7h0.6c0.3,0,0.6-0.3,0.6-0.7
		S-229.1,355.2-229.4,355.2z"/>
	<path class="st1" d="M-225.7,355.2h-1.3c-0.3,0-0.6,0.3-0.6,0.7s0.3,0.7,0.6,0.7h1.3c0.3,0,0.6-0.3,0.6-0.7
		S-225.3,355.2-225.7,355.2z"/>
	<path class="st1" d="M-223.6,355.3c-0.1,0.1-0.2,0.3-0.2,0.4s0.1,0.4,0.2,0.4c0.1,0.1,0.3,0.2,0.4,0.2c0.1,0,0.3-0.1,0.4-0.2
		c0.1-0.1,0.2-0.3,0.2-0.4s-0.1-0.4-0.2-0.4C-222.9,355.1-223.4,355.1-223.6,355.3z"/>
	<path class="st1" d="M-223.1,347.9h-13.7c-0.3,0-0.6,0.3-0.6,0.7c0,0.4,0.3,0.7,0.6,0.7h13.7c0.3,0,0.6-0.3,0.6-0.7
		C-222.5,348.2-222.8,347.9-223.1,347.9z"/>
	<path class="st1" d="M-223.1,351.9h-13.7c-0.3,0-0.6,0.3-0.6,0.7s0.3,0.7,0.6,0.7h13.7c0.3,0,0.6-0.3,0.6-0.7
		S-222.8,351.9-223.1,351.9z"/>
</g>
</svg>
