<?xml version="1.0" encoding="utf-8"?>
<!-- Generator: Adobe Illustrator 19.0.0, SVG Export Plug-In . SVG Version: 6.00 Build 0)  -->
<svg version="1.1" id="Layer_1" xmlns="http://www.w3.org/2000/svg" xmlns:xlink="http://www.w3.org/1999/xlink" x="0px" y="0px"
	 viewBox="-293 298.2 111.2 105.8" style="enable-background:new -293 298.2 111.2 105.8;" xml:space="preserve">
<style type="text/css">
	.st0{fill:#FFFFFF;stroke:#198A55;stroke-miterlimit:10;}
	.st1{fill:#1C8954;}
</style>
<ellipse class="st0" cx="-237.1" cy="349" rx="47.4" ry="45.2"/>
<g>
	<g>
		<path class="st1" d="M-223.1,335.4c-3.8-3.6-8.9-5.6-14.3-5.6c-5.4,0-10.5,2-14.3,5.6c-7.4,7-7.9,18.3-1.3,25.8
			c-0.7,1.2-1.7,2.7-3.2,3.4c-0.7,0.3-1.2,1.1-1,1.9c0.1,0.8,0.8,1.4,1.6,1.5c0.4,0.1,0.9,0.1,1.6,0.1c1.8,0,4.4-0.4,7.1-2.2
			c3,1.5,6.3,2.3,9.5,2.3c5.2,0,10.4-1.9,14.3-5.6c3.8-3.6,5.9-8.4,5.9-13.6C-217.2,343.9-219.3,339-223.1,335.4z M-224.7,361
			c-5.8,5.5-14.7,6.6-21.8,2.6c-0.5-0.3-1-0.2-1.4,0.2c0,0-0.1,0-0.1,0.1c-2.3,1.7-4.6,2.1-6.1,2.1l0,0c1.7-1.2,2.8-3,3.5-4.4
			c0.1-0.2,0.1-0.5,0.1-0.7s-0.1-0.4-0.3-0.6c-6.3-6.7-5.9-17,0.8-23.3c7-6.6,18.4-6.6,25.3,0C-217.8,343.6-217.8,354.4-224.7,361z"
			/>
		<ellipse class="st1" cx="-237.4" cy="349" rx="1.4" ry="1.3"/>
		<ellipse class="st1" cx="-230.1" cy="349" rx="1.4" ry="1.3"/>
		<ellipse class="st1" cx="-244.7" cy="349" rx="1.4" ry="1.3"/>
	</g>
</g>
</svg>
