<?xml version="1.0" encoding="utf-8"?>
<!-- Generator: Adobe Illustrator 16.0.0, SVG Export Plug-In . SVG Version: 6.00 Build 0)  -->
<!DOCTYPE svg PUBLIC "-//W3C//DTD SVG 1.1//EN" "http://www.w3.org/Graphics/SVG/1.1/DTD/svg11.dtd">
<svg version="1.1" id="Layer_1" xmlns="http://www.w3.org/2000/svg" xmlns:xlink="http://www.w3.org/1999/xlink" x="0px" y="0px"
	 width="96.125px" height="92px" viewBox="9 4.625 96.125 92" enable-background="new 9 4.625 96.125 92" xml:space="preserve">
<g>
	<ellipse fill="#FFFFFF" stroke="#198A55" stroke-miterlimit="10" cx="57.173" cy="50.721" rx="47.397" ry="45.231"/>
	<g>
		<g>
			<path fill="#1B8955" d="M64.139,73.459c-1.478,0-3.258-0.37-5.218-1.109c-4.297-1.619-8.971-4.82-13.163-9.013
				c-4.19-4.19-7.392-8.866-9.014-13.163c-1.474-3.906-1.478-7.114-0.011-8.58c0.211-0.212,0.426-0.439,0.648-0.671
				c1.341-1.407,2.88-3.006,4.859-2.921c1.384,0.058,2.723,0.917,4.096,2.623c4.051,5.04,2.226,6.837,0.112,8.919l-0.374,0.37
				c-0.346,0.346-1,1.947,5.082,8.027c1.984,1.984,3.677,3.438,5.03,4.316c0.854,0.557,2.373,1.393,2.998,0.766l0.377-0.379
				c2.08-2.11,3.877-3.932,8.914,0.119c1.707,1.369,2.563,2.709,2.621,4.094c0.082,2.006-1.515,3.521-2.925,4.86
				c-0.229,0.22-0.459,0.435-0.669,0.646C66.771,73.093,65.607,73.459,64.139,73.459z M42.101,39.191
				c-1.426,0-2.715,1.354-3.853,2.553c-0.229,0.239-0.453,0.474-0.67,0.691c-1.094,1.092-0.981,3.964,0.283,7.317
				c1.563,4.143,4.666,8.667,8.74,12.742c4.074,4.072,8.599,7.178,12.741,8.738c3.355,1.268,6.225,1.375,7.318,0.283
				c0.218-0.218,0.451-0.439,0.689-0.668c1.227-1.164,2.613-2.482,2.553-3.947c-0.039-1.006-0.771-2.088-2.176-3.213
				c-4.199-3.375-5.371-2.186-7.317-0.211l-0.382,0.387c-0.93,0.93-2.442,0.723-4.491-0.609c-1.422-0.925-3.181-2.431-5.224-4.474
				c-5.046-5.048-6.661-8.134-5.081-9.717l0.379-0.375c1.979-1.947,3.172-3.123-0.203-7.322c-1.129-1.401-2.21-2.134-3.217-2.176
				C42.161,39.191,42.13,39.191,42.101,39.191z"/>
		</g>
		<path fill="#1B8955" d="M68.102,63.82c-0.186,0-0.365-0.086-0.481-0.245c-0.194-0.267-0.136-0.64,0.129-0.833
			c1.235-0.901,2.334-1.979,3.265-3.2c2.102-2.759,3.209-6.056,3.209-9.532c0.002-8.69-7.066-15.759-15.757-15.759
			c-2.632,0-5.239,0.663-7.534,1.915c-0.289,0.16-0.651,0.054-0.81-0.237c-0.159-0.289-0.051-0.651,0.237-0.809
			c2.472-1.348,5.274-2.061,8.106-2.061c9.348,0,16.95,7.604,16.95,16.952c0,3.74-1.192,7.285-3.455,10.255
			c-0.999,1.315-2.181,2.471-3.509,3.442C68.348,63.783,68.223,63.82,68.102,63.82z"/>
		<g>
			<path fill="#1B8955" d="M55.146,43.562c0.712-0.215,1.393-0.349,2.129-0.349c1.904,0,3.067,0.951,3.067,2.572
				c0,0.896-0.495,1.58-1.556,2.275l-2.127,1.434c-0.657,0.442-0.953,1.139-0.953,1.89h4.354c0.094,0,0.146,0.054,0.146,0.147v1.031
				c0,0.092-0.053,0.146-0.146,0.146H54.34c-0.093,0-0.146-0.055-0.146-0.146v-0.644c0-1.635,0.534-2.813,1.74-3.604l2.116-1.406
				c0.536-0.362,0.775-0.711,0.775-1.124c0-0.751-0.589-1.233-1.554-1.233c-0.604,0-1.18,0.107-1.688,0.281l-0.777,0.255
				c-0.08,0.026-0.147-0.015-0.175-0.094l-0.333-1.004c-0.041-0.08,0-0.148,0.093-0.174L55.146,43.562z"/>
			<path fill="#1B8955" d="M68.611,50.164c0,0.095-0.055,0.148-0.146,0.148h-0.83v2.25c0,0.094-0.054,0.146-0.148,0.146h-1.203
				c-0.094,0-0.147-0.053-0.147-0.146v-2.25h-4.489c-0.092,0-0.146-0.054-0.146-0.148V49.04c0-0.079,0.015-0.134,0.067-0.188
				c0.334-0.387,0.629-0.749,0.951-1.191l2.478-3.188c0.253-0.335,0.453-0.658,0.681-1.033c0.055-0.067,0.108-0.093,0.188-0.093
				h1.618c0.096,0,0.148,0.054,0.148,0.147v5.492h0.83c0.094,0,0.146,0.054,0.146,0.147L68.611,50.164L68.611,50.164z
				 M66.135,46.669c0-0.429,0.025-0.858,0.079-1.314c0.026-0.161-0.092-0.201-0.2-0.053l-2.171,2.759
				c-0.174,0.241-0.428,0.549-0.614,0.723c-0.095,0.107-0.041,0.2,0.065,0.2h2.841V46.669z"/>
		</g>
	</g>
</g>
</svg>
