<?xml version="1.0" encoding="utf-8"?>
<!-- Generator: Adobe Illustrator 19.0.0, SVG Export Plug-In . SVG Version: 6.00 Build 0)  -->
<svg version="1.1" id="Layer_1" xmlns="http://www.w3.org/2000/svg" xmlns:xlink="http://www.w3.org/1999/xlink" x="0px" y="0px"
	 viewBox="-293 298.2 111.2 105.8" style="enable-background:new -293 298.2 111.2 105.8;" xml:space="preserve">
<style type="text/css">
	.st0{fill:#FFFFFF;stroke:#198A55;stroke-miterlimit:10;}
	.st1{fill:#1C8954;}
</style>
<ellipse class="st0" cx="-237.1" cy="349" rx="47.4" ry="45.2"/>
<g>
	<path class="st1" d="M-236.4,346.5c2.4,0,4.3-1.9,4.3-4.3s-1.9-4.3-4.3-4.3s-4.3,1.9-4.3,4.3C-240.6,344.5-238.7,346.5-236.4,346.5
		z M-236.4,339c1.7,0,3,1.4,3,3.1c0,1.7-1.4,3.1-3,3.1c-1.7,0-3-1.4-3-3.1C-239.4,340.3-238.1,339-236.4,339z"/>
	<path class="st1" d="M-236.5,364.6l9.4-13.9c3.5-4.8,3-12.8-1.1-16.9c-2.3-2.3-5.2-3.6-8.3-3.6s-6.1,1.3-8.3,3.6
		c-4.2,4.3-4.6,12.2-1.1,16.9L-236.5,364.6z M-243.9,334.6c2-2,4.6-3.2,7.5-3.2s5.5,1.2,7.5,3.2c3.7,3.8,4.2,10.9,0.9,15.4
		l-8.4,12.5l-8.4-12.5C-248.1,345.5-247.6,338.4-243.9,334.6z"/>
	<path class="st1" d="M-228.9,357.1c-0.4,0-0.7,0.2-0.7,0.6s0.2,0.7,0.6,0.7c6.4,0.8,9.9,2.9,9.9,4.1c0,1.7-6.5,4.1-17.2,4.1
		c-10.7,0-17.2-2.4-17.2-4.1c0-1.3,3.4-3.3,9.9-4.1c0.4,0,0.6-0.4,0.6-0.7c0-0.4-0.4-0.6-0.7-0.6c-6.4,0.8-11,3-11,5.3
		c0,2.6,6.3,5.3,18.4,5.3s18.4-2.7,18.4-5.3C-217.9,360.1-222.5,357.9-228.9,357.1z"/>
</g>
</svg>
