<?xml version="1.0" encoding="utf-8"?>
<!-- Generator: Adobe Illustrator 19.0.0, SVG Export Plug-In . SVG Version: 6.00 Build 0)  -->
<svg version="1.1" id="Layer_1" xmlns="http://www.w3.org/2000/svg" xmlns:xlink="http://www.w3.org/1999/xlink" x="0px" y="0px"
	 viewBox="-293 298.2 111.2 105.8" style="enable-background:new -293 298.2 111.2 105.8;" xml:space="preserve">
<style type="text/css">
	.st0{fill:#FFFFFF;stroke:#198A55;stroke-miterlimit:10;}
	.st1{fill:#1C8954;}
</style>
<ellipse class="st0" cx="-237.1" cy="349" rx="47.4" ry="45.2"/>
<g>
	<path class="st1" d="M-219.5,339.8h-5.7l-2.7-6.7h-17l-2.7,6.7h-0.9v-3.4h-4v3.4h-0.8c-1.7,0-3.2,1.5-3.2,3.2v19.7
		c0,1.8,1.5,3.2,3.2,3.2h33.8c1.8,0,3.2-1.5,3.2-3.2V343C-216.3,341.2-217.8,339.8-219.5,339.8z M-251.2,337.8h1.3v2h-1.3V337.8z
		 M-217.7,362.7c0,1-0.9,1.9-1.9,1.9h-33.8c-1,0-1.9-0.9-1.9-1.9V343c0-1,0.9-1.9,1.9-1.9h0.8h4h1.8l2.7-6.7h15.2l2.7,6.7h6.6
		c1,0,1.9,0.9,1.9,1.9L-217.7,362.7L-217.7,362.7z"/>
	<path class="st1" d="M-236.5,339.1c-6.7,0-12.1,5.4-12.1,12.1s5.4,12.1,12.1,12.1s12.1-5.4,12.1-12.1S-229.8,339.1-236.5,339.1z
		 M-236.5,361.9c-5.9,0-10.8-4.8-10.8-10.8c0-5.9,4.8-10.8,10.8-10.8c6,0,10.8,4.8,10.8,10.8S-230.6,361.9-236.5,361.9z"/>
	<path class="st1" d="M-236.5,343.1c-4.4,0-8.1,3.6-8.1,8.1c0,4.4,3.6,8.1,8.1,8.1s8.1-3.6,8.1-8.1
		C-228.4,346.8-232,343.1-236.5,343.1z M-236.5,357.9c-3.7,0-6.7-3-6.7-6.7c0-3.7,3-6.7,6.7-6.7c3.6,0,6.7,3,6.7,6.7
		C-229.8,354.9-232.7,357.9-236.5,357.9z"/>
	<path class="st1" d="M-221.7,342.5c-1.5,0-2.7,1.2-2.7,2.7s1.2,2.7,2.7,2.7s2.7-1.2,2.7-2.7C-219,343.6-220.2,342.5-221.7,342.5z
		 M-221.7,346.5c-0.8,0-1.3-0.6-1.3-1.3c0-0.8,0.6-1.3,1.3-1.3c0.8,0,1.3,0.6,1.3,1.3C-220.4,345.9-221,346.5-221.7,346.5z"/>
</g>
</svg>
